<?xml version="1.0" encoding="utf-8"?>
<!-- Generator: Adobe Illustrator 27.2.0, SVG Export Plug-In . SVG Version: 6.00 Build 0)  -->
<svg version="1.1" xmlns="http://www.w3.org/2000/svg" xmlns:xlink="http://www.w3.org/1999/xlink" x="0px" y="0px"
	 viewBox="0 0 669 531" style="enable-background:new 0 0 669 531;" xml:space="preserve">
<style type="text/css">
	.st0{display:none;}
	.st1{display:inline;fill:none;stroke:#000000;stroke-width:13;stroke-miterlimit:10;}
	.st2{display:inline;fill:none;stroke:#00A204;stroke-width:13;stroke-miterlimit:10;}
	.st3{fill:none;stroke:#9AB789;stroke-width:13;stroke-miterlimit:10;}
	.st4{fill:#9AB789;}
</style>
<g id="Capa_1" class="st0">
	<ellipse class="st1" cx="521" cy="292" rx="189.5" ry="178.5"/>
	<path class="st2" d="M370.5,205.5"/>
	<path class="st1" d="M365.5,220.5"/>
</g>
<g id="Capa_2">
	<path class="st3" d="M344.4,120.5c9.7,7.5,21.9,18.4,33.7,33.3c13.1,16.5,20.6,31.2,23.3,38.1c6.3,16.2,17.1,44.9,14,83.2
		c-4.3,53.4-32.4,89-39.1,97.1c-9.6,11.6-34.1,40.4-79.3,55.9c-13.3,4.6-60.8,19.1-116.4,0.9c-57.4-18.8-85.2-59.9-93.9-73.2
		c-47.2-72-20.2-147-16.7-156.3c14.9-39.2,40.9-64.2,55.7-76.3"/>
	<path class="st3" d="M319.2,403.1c-10.2-6.8-23.1-16.9-35.8-31c-14.1-15.6-22.6-29.7-25.8-36.5c-7.4-15.8-20-43.7-19.5-82.1
		c0.7-53.6,26.4-90.9,32.6-99.5c8.8-12.2,31.3-42.6,75.3-61.1c12.9-5.4,59.4-23.1,116.1-8.7c58.5,14.9,89,54,98.6,66.7
		c51.9,68.7,30,145.4,27.1,154.9c-12.2,40.1-36.6,66.8-50.5,79.9"/>
	<path class="st4" d="M175.8,95.5c-0.4-1.4-1.7-1.9-3.1-1.7c-15.4,2.3-30.2,8.4-42.7,17.7c-3.6,2.7-7.1,5.6-10.3,8.8
		c-0.6,0.6-0.8,1.2-0.8,1.7c-0.9,1.2-1.6,2.5-2.1,4c-0.8,2,1.9,3.9,3.7,2.8c1.7-1.1,3.3-2.1,5-3.2c-1,1.9-2,3.9-2.9,5.9
		c-9.1,11.1-17,23.1-23.5,35.9c-7.4,14.4-13.1,29.7-16.9,45.5c-2.1,8.9-3.6,18-4.5,27.1c-0.1,1.1,0.9,2.1,1.8,2.4
		c12.8,4.1,26.8,3.3,39-2.2c10.5-4.7,19.5-13.1,25-23.2c6.4-11.7,7.9-25.2,8.6-38.3c0.8-14.1,1.2-28.3,4.3-42.1
		c3-13.7,8.6-27.2,18.3-37.6c0.5-0.5,0.7-1,0.7-1.5C175.8,96.8,175.9,96.1,175.8,95.5z"/>
	<path class="st4" d="M566.4,323.9c2.3-7.3,3.9-14.8,4.6-22.4c2.1-11.1,2.1-22.6-0.2-33.7c-0.9-4.3-2.1-8.5-3.6-12.6
		c0,0,0-0.1,0-0.1c-0.5-1.4-1.1-2.9-1.7-4.3c-0.7-1.6-2.8-1.4-3.9-0.5c-0.5,0.5-1.1,0.9-1.6,1.4c-0.2,0-0.3,0.1-0.5,0.2
		c-17.9,9.2-37.6,19.8-46.2,39.1c-4.7,10.8-5.9,22.6-6.6,34.2c-0.8,12.9-1.2,25.9-1.3,38.9c-0.1,14.6,0.4,29.2,1.2,43.8
		c0.1,2.3,2.6,3.1,4.3,1.8l0.6-0.5c5.9-2.5,11.6-5.5,16.9-9c6.2-3.1,11.8-7.6,16.1-13.1c0.1-0.1,0.1-0.2,0.2-0.3c1-1,1.9-2,2.8-3
		c1-1.1,0.8-2.4,0.1-3.3c0.3-0.9,0.1-2.1-0.6-2.7c-0.5-0.5-1.1-0.7-1.7-0.7c1-3.7,1.8-7.4,2.5-11.2
		C554.7,352.3,561.7,338.5,566.4,323.9z M537.3,337.8c0,0-0.1,0-0.1,0c0.1-0.6,0.2-1.2,0.2-1.8c0.1,0,0.1,0,0.2,0
		C537.5,336.7,537.4,337.3,537.3,337.8z"/>
	<path class="st4" d="M371.1,242.1c-0.5-4-2.1-7.8-4.7-11c-5.2-6.6-13.4-10.6-22-10c-8.6,0.6-16.5,5-21.7,11.5
		c-4.6-5-10.3-8.8-17.4-9.6c-7.5-0.8-14.8,2.6-18.2,9c-1.7,2-3.1,4.3-3.8,7c-2.4,8.4,0.7,17,5.3,24.2c4.8,7.6,10.6,14.7,16.6,21.5
		c6.8,7.7,14.2,15,22,21.7c1.5,1.2,3.3,0.9,4.4-0.5c0.6-0.8,1.2-1.6,1.8-2.4c0.6-0.3,1-0.9,1.3-1.6c0-0.1,0.1-0.2,0.1-0.3
		c5.5-7.3,10.9-14.5,16.4-21.8c3.3-4.3,6.5-8.7,9.8-13c2.8-3.7,5.7-7.5,7.8-11.7C370.5,250.9,371.7,246.5,371.1,242.1z"/>
</g>
</svg>
